<?xml version="1.0" encoding="UTF-8"?><svg id="Capa_2" xmlns="http://www.w3.org/2000/svg" width="333.02" height="245.15" viewBox="0 0 333.02 245.15"><defs><style>.cls-1{opacity:.05;}.cls-1,.cls-2{fill:#cedafe;}.cls-3{fill:#5c86ff;}.cls-4{fill:#0459ff;}</style></defs><g id="Capa_1-2"><path class="cls-4" d="M272.95,242.82l-91.84-75.15c-3.04-2.49-4.19-6.62-3.08-11.05L214.05,13.38c2.69-10.72,16.28-17.07,23.63-11.05l91.84,75.15c3.04,2.49,4.19,6.62,3.08,11.05l-36.01,143.24c-2.69,10.72-16.28,17.07-23.63,11.05Z"/><path class="cls-3" d="M185.38,242.82l-91.84-75.15c-3.04-2.49-4.19-6.62-3.08-11.05L126.48,13.38c2.69-10.72,16.28-17.07,23.63-11.05l91.84,75.15c3.04,2.49,4.19,6.62,3.08,11.05l-36.01,143.24c-2.69,10.72-16.28,17.07-23.63,11.05Z"/><path class="cls-1" d="M245.08,88.34l-27.41,109.02-36.51-29.89c-3.04-2.49-4.19-6.62-3.08-11.05l27.41-109.01,36.51,29.88c3.04,2.49,4.19,6.63,3.08,11.05Z"/><path class="cls-2" d="M95.33,242.82L3.49,167.67c-3.04-2.49-4.19-6.62-3.08-11.05L36.43,13.38C39.13,2.66,52.71-3.69,60.07,2.33l91.84,75.15c3.04,2.49,4.19,6.62,3.08,11.05l-36.01,143.24c-2.69,10.72-16.28,17.07-23.63,11.05Z"/></g></svg>